<?xml version="1.0" encoding="utf-8"?>
<!-- Generator: Adobe Illustrator 26.1.0, SVG Export Plug-In . SVG Version: 6.00 Build 0)  -->
<svg version="1.1" id="Layer_1" xmlns="http://www.w3.org/2000/svg" xmlns:xlink="http://www.w3.org/1999/xlink" x="0px" y="0px"
	 viewBox="0 0 20 20" style="enable-background:new 0 0 20 20;" xml:space="preserve">
<style type="text/css">
	.st0{fill:#FFFFFF;}
</style>
<path class="st0" d="M9.3,15h1.5V9H9.3V15z M10,7.2c0.2,0,0.5,0,0.6-0.2c0.2-0.2,0.2-0.3,0.2-0.5c0-0.2-0.1-0.5-0.2-0.6
	c-0.2-0.2-0.3-0.2-0.6-0.2c-0.2,0-0.5,0.1-0.6,0.2C9.3,6,9.2,6.1,9.2,6.4c0,0.2,0.1,0.5,0.2,0.5C9.6,7.1,9.8,7.2,10,7.2z M10,19.9
	c-1.3,0-2.6-0.2-3.9-0.8C4.9,18.7,3.9,17.9,3,17c-0.9-0.9-1.6-1.9-2.2-3.2S0.1,11.3,0.1,10c0-1.3,0.2-2.7,0.8-3.9S2.1,3.8,3,2.9
	S5,1.3,6.2,0.8S8.7,0.1,10,0.1s2.6,0.2,3.9,0.8s2.3,1.2,3.1,2.2c0.9,0.9,1.6,1.9,2.2,3.2S20,8.6,20,10c0,1.3-0.2,2.7-0.8,3.9
	c-0.5,1.2-1.2,2.3-2.2,3.2c-0.9,0.9-1.9,1.6-3.2,2.2C12.7,19.7,11.4,19.9,10,19.9z M10,18.5c2.3,0,4.3-0.8,6-2.5
	c1.7-1.7,2.5-3.6,2.5-6c0-2.3-0.8-4.3-2.5-6c-1.7-1.7-3.6-2.5-6-2.5S5.7,2.3,4.1,4s-2.5,3.6-2.5,6s0.8,4.3,2.5,6
	C5.7,17.6,7.7,18.5,10,18.5z"/>
</svg>
